<?xml version="1.0" encoding="UTF-8"?>
<svg width="32" height="32" viewBox="0 0 32 32" fill="none" xmlns="http://www.w3.org/2000/svg">
  <path d="M16 4C9.373 4 4 9.373 4 16C4 22.627 9.373 28 16 28C22.627 28 28 22.627 28 16C28 9.373 22.627 4 16 4ZM21.707 13.707L15.707 19.707C15.512 19.902 15.256 20 15 20C14.744 20 14.488 19.902 14.293 19.707L10.293 15.707C9.902 15.316 9.902 14.684 10.293 14.293C10.684 13.902 11.316 13.902 11.707 14.293L15 17.586L20.293 12.293C20.684 11.902 21.316 11.902 21.707 12.293C22.098 12.684 22.098 13.316 21.707 13.707Z" fill="#0068C9"/>
</svg>