<?xml version="1.0" encoding="UTF-8"?>
<svg xmlns="http://www.w3.org/2000/svg" width="332" height="207" viewBox="0 0 332 207" fill="none">
  <path d="M89.0541 0.137148C88.9852 0.22858 88.9163 27.6354 88.9163 61.0538V121.81H93.3966C96.797 121.81 97.8998 121.742 97.9228 121.513C97.9458 121.376 97.9687 108.69 97.9917 93.3522V65.4654H152.215L152.283 71.0199C152.306 74.1972 152.421 76.5515 152.536 76.5058C152.743 76.4373 156.327 73.4657 159.613 70.6542L161.29 69.2141V0L152.444 0.0914321L152.329 56.4365H97.8998V28.4582C97.9228 13.0748 97.8768 0.388587 97.7849 0.251438C97.6471 0.022858 89.3069 -0.0914321 89.0541 0.137148Z" fill="black"></path>
  <path d="M235.18 0.160006C235.088 0.22858 235.042 12.8005 235.042 28.0697C235.042 43.3617 235.065 56.0022 235.042 56.1393C235.042 56.3679 229.459 56.4365 207.931 56.4365H180.819V47.5218C180.819 42.6074 180.75 38.6072 180.682 38.6072C180.613 38.6072 179.257 39.7044 177.649 41.053C176.04 42.3788 174.042 44.0474 173.191 44.756L171.629 46.0361L171.652 83.6147C171.652 104.278 171.721 121.33 171.79 121.49C171.882 121.742 172.801 121.81 176.362 121.81H180.819L180.934 65.4654L207.885 65.3968C229.436 65.3511 234.858 65.3968 234.927 65.6483C235.042 65.8768 235.111 77.9002 235.249 114.656L235.272 121.81H244.233L244.118 0.0914321L239.729 0.0457161C237.294 0.022858 235.249 0.0685741 235.18 0.160006Z" fill="black"></path>
  <path d="M169.446 132.897C165.563 133.788 162.232 135.754 158.464 139.388C152.697 144.943 147.55 153.423 141.669 167.115C140.336 170.201 139.026 173.241 138.751 173.812C137.878 175.641 138.82 176.121 141.852 175.435C146.218 174.43 151.571 170.727 153.501 167.412C154.512 165.652 154.328 164.784 152.927 164.784C151.87 164.784 149.641 165.995 144.426 169.447C142.771 170.521 141.416 171.367 141.37 171.321C141.255 171.23 142.909 167.001 143.759 165.172C144.15 164.326 144.518 163.869 144.77 163.869C145.804 163.869 154.788 161.606 158.946 160.303C165.518 158.246 171.147 155.915 175.236 153.56C178.315 151.8 179.831 150.657 181.761 148.623C183.76 146.497 184.312 145.309 184.45 142.817C184.541 140.988 184.496 140.737 183.852 139.388C182.611 136.828 179.625 134.268 176.615 133.239C174.777 132.622 171.376 132.439 169.446 132.897ZM175.144 133.582C178.292 134.245 181.784 136.737 182.956 139.16C183.737 140.805 183.668 143.434 182.795 145.217C182.06 146.703 179.762 149.263 177.833 150.703C175.512 152.486 170.733 155.092 167.149 156.6C162.669 158.452 161.772 158.772 156.695 160.326C151.318 161.949 144.747 163.526 144.747 163.183C144.747 162.909 145.437 161.332 146.815 158.475C150.445 150.977 155.385 143.777 159.934 139.365C165.058 134.405 170.067 132.508 175.144 133.582ZM151.709 166.635C152.352 167.664 149.618 170.955 146.585 172.83C144.885 173.881 142.266 174.841 141.14 174.841C140.589 174.841 140.566 174.795 140.681 173.858C140.842 172.624 141.852 171.687 145.85 169.058C150.353 166.064 151.135 165.744 151.709 166.635Z" fill="black"></path>
  <path d="M0 146.84C0 147.023 0.206782 147.183 0.43654 147.183C0.666298 147.183 1.10284 147.389 1.40152 147.617L1.95294 148.051L2.02187 157.4C2.06782 162.521 2.02187 167.069 1.95294 167.481C1.79211 168.304 1.03391 169.127 0.413564 169.127C0.183806 169.127 0 169.287 0 169.469C0 169.767 0.59737 169.812 4.02076 169.812C7.3063 169.812 8.04152 169.744 8.04152 169.492C8.04152 169.309 7.78879 169.104 7.46713 169.035C6.34132 168.738 6.22644 168.235 6.20346 163.321C6.18048 160.829 6.22644 158.749 6.27239 158.68C6.36429 158.612 12.2001 158.543 14.1761 158.589C14.6585 158.612 14.6585 158.658 14.6585 163.023C14.6585 167.892 14.5666 168.349 13.3949 168.898C12.9813 169.081 12.6367 169.378 12.6367 169.515C12.6367 169.744 13.6017 169.812 16.6574 169.812C20.0808 169.812 20.6782 169.767 20.6782 169.469C20.6782 169.287 20.4944 169.127 20.2876 169.127C19.7592 169.104 19.2307 168.692 18.8861 168.052C18.6793 167.709 18.6104 164.806 18.6104 157.926V148.303L19.1848 147.754C19.4835 147.434 19.943 147.183 20.2187 147.183C20.4714 147.183 20.6782 147.023 20.6782 146.84C20.6782 146.543 20.0579 146.497 16.5426 146.497C14.1761 146.497 12.4069 146.589 12.4069 146.703C12.4069 146.817 12.7975 147.114 13.257 147.343C13.7395 147.571 14.245 148.006 14.4058 148.303C14.5666 148.669 14.6585 150.337 14.6585 153.286C14.6585 157.652 14.6585 157.698 14.1761 157.72C12.1082 157.766 6.36429 157.698 6.27239 157.606C6.20346 157.56 6.15751 155.412 6.15751 152.852L6.18048 148.211L6.77786 147.709C7.09952 147.411 7.53606 147.183 7.71986 147.183C7.90367 147.183 8.04152 147.023 8.04152 146.84C8.04152 146.543 7.44415 146.497 4.02076 146.497C0.59737 146.497 0 146.543 0 146.84Z" fill="black"></path>
  <path d="M30.9714 148.143C30.6497 149.057 29.9145 151.046 29.3401 152.554C28.7887 154.063 27.6858 157.035 26.9046 159.183C23.8948 167.389 23.6651 167.961 22.9758 168.487C22.6771 168.738 22.1257 168.989 21.7581 169.058C21.4134 169.127 21.1607 169.309 21.2066 169.447C21.2526 169.607 22.1716 169.721 23.6191 169.767C25.5491 169.812 25.9626 169.767 25.9626 169.492C25.9626 169.309 25.7329 169.127 25.4572 169.081C25.1815 169.035 24.8138 168.761 24.676 168.464C24.4003 167.938 24.5611 167.298 25.7788 164.258L26.0086 163.641H34.3947L35.1759 165.904C36.003 168.349 35.9571 168.692 34.7624 169.149C33.4298 169.652 34.3718 169.812 38.4844 169.812C41.9308 169.812 42.735 169.744 42.735 169.492C42.735 169.332 42.4363 169.127 42.0687 169.058C40.8509 168.807 40.2536 168.029 39.3116 165.355C37.956 161.492 33.5906 149.514 32.9932 147.983C32.212 145.994 31.7525 146.04 30.9714 148.143ZM32.1431 157.606C33.1541 160.395 34.0042 162.726 34.0042 162.818C34.0042 162.886 32.3039 162.955 30.2132 162.955C28.1224 162.955 26.4221 162.863 26.4221 162.749C26.4221 162.566 27.1344 160.532 28.8576 155.869C29.9374 152.943 30.1442 152.417 30.2132 152.486C30.2361 152.532 31.1092 154.84 32.1431 157.606Z" fill="black"></path>
  <path d="M43.1945 146.794C43.1945 146.954 43.5391 147.183 43.9297 147.297C45.2623 147.709 45.2623 147.731 45.2163 158.452L45.1474 168.235L44.573 168.669C44.2513 168.921 43.8148 169.127 43.608 169.127C43.3783 169.127 43.1945 169.287 43.1945 169.469C43.1945 169.767 43.7918 169.812 47.2152 169.812C50.6386 169.812 51.236 169.767 51.236 169.469C51.236 169.287 51.0981 169.127 50.9143 169.127C50.7305 169.127 50.317 168.898 49.9953 168.601L49.3979 168.098L49.283 158.543C49.1682 149.926 49.1911 148.92 49.5358 148.189C49.8115 147.617 50.1102 147.343 50.5697 147.251C50.9373 147.183 51.236 146.977 51.236 146.817C51.236 146.566 50.4778 146.497 47.2152 146.497C44.0905 146.497 43.1945 146.566 43.1945 146.794Z" fill="black"></path>
  <path d="M52.7294 146.726C52.6605 146.84 52.9592 147.091 53.3957 147.274C53.8322 147.457 54.2918 147.8 54.4296 148.051C54.5905 148.371 54.6824 151.686 54.6824 158.155C54.6824 164.624 54.5905 167.938 54.4296 168.258C54.2918 168.509 53.8322 168.852 53.3957 169.035C52.9592 169.218 52.6145 169.469 52.6145 169.584C52.6145 169.881 60.5871 169.881 60.7709 169.584C60.8399 169.469 60.5412 169.218 60.1046 169.035C59.6681 168.852 59.2086 168.509 59.0707 168.258C58.9099 167.984 58.818 166.361 58.818 164.349V160.898H59.3924C59.8519 160.898 60.2884 161.355 61.7359 163.435C64.6538 167.618 65.7797 168.989 66.6298 169.424C67.2731 169.744 67.9164 169.812 69.9383 169.767C71.7074 169.721 72.4886 169.607 72.5575 169.401C72.6035 169.241 72.4426 169.127 72.1439 169.127C70.8343 169.127 69.9383 168.281 67.365 164.646C65.9635 162.658 64.8606 160.966 64.9296 160.852C64.9985 160.761 65.3201 160.669 65.6648 160.669C67.6177 160.669 70.2599 158.36 70.9033 156.143C71.7534 153.286 70.8573 149.652 68.9733 148.097C67.1812 146.634 66.4 146.497 59.2775 146.497C55.3946 146.497 52.8213 146.589 52.7294 146.726ZM63.528 147.663C65.8026 148.646 67.1122 150.703 67.1812 153.286C67.2042 155.343 66.7676 156.806 65.6878 158.018C64.4471 159.412 63.4591 159.823 60.9318 159.983L58.818 160.098V147.114L60.8399 147.229C61.9427 147.297 63.1604 147.503 63.528 147.663Z" fill="black"></path>
  <path d="M82.7128 147.8C82.4371 148.531 81.7938 150.246 81.3113 151.64C80.8058 153.012 80.3003 154.36 80.1855 154.612C80.0706 154.863 79.8179 155.48 79.634 155.983C75.7282 166.909 75.1997 168.167 74.2347 168.738C73.8671 168.944 73.4076 169.127 73.2008 169.127C72.994 169.127 72.8332 169.287 72.8332 169.469C72.8332 169.744 73.2468 169.812 75.1308 169.812C76.9459 169.812 77.4284 169.744 77.4284 169.492C77.4284 169.309 77.1756 169.104 76.877 169.035C75.9579 168.807 75.9579 168.144 76.7851 165.789L77.5433 163.641L81.7708 163.686L85.9983 163.755L86.7565 165.835C87.3999 167.595 87.4688 167.984 87.2161 168.464C87.0782 168.761 86.7106 169.035 86.4349 169.081C86.1592 169.127 85.9294 169.309 85.9294 169.492C85.9294 169.767 86.6417 169.812 90.0651 169.812C93.5803 169.812 94.2007 169.767 94.2007 169.469C94.2007 169.287 93.9939 169.127 93.7412 169.127C93.4884 169.127 92.914 168.784 92.5005 168.372C91.8572 167.778 91.4666 166.955 90.4097 163.984C89.6745 161.972 88.1121 157.652 86.9174 154.383C85.7456 151.114 84.5968 148.006 84.413 147.457C83.8846 146.04 83.3331 146.154 82.7128 147.8ZM83.5859 157.172C84.5049 159.663 85.355 161.972 85.4699 162.315L85.6767 162.955H81.7708C79.634 162.955 77.8879 162.932 77.8879 162.886C77.8879 162.863 78.6691 160.715 79.634 158.155C80.599 155.572 81.4262 153.286 81.4951 153.057C81.564 152.852 81.6789 152.669 81.7708 152.669C81.8397 152.669 82.6668 154.703 83.5859 157.172Z" fill="black"></path>
  <path d="M94.89 146.84C94.89 147.023 95.0738 147.183 95.3035 147.183C96.1536 147.183 96.728 148.029 96.751 149.309C96.751 149.972 96.751 154.452 96.751 159.298V168.098L96.1536 168.601C95.832 168.898 95.3954 169.127 95.2116 169.127C95.0278 169.127 94.89 169.287 94.89 169.469C94.89 169.767 95.4873 169.812 98.9107 169.812C102.334 169.812 102.931 169.767 102.931 169.469C102.931 169.287 102.748 169.127 102.495 169.127C102.265 169.127 101.806 168.852 101.461 168.532C100.864 167.915 100.864 167.892 100.864 164.441V160.943L104.494 160.852C108.4 160.715 109.158 160.555 110.835 159.366C114.213 156.989 114.259 150.634 110.904 147.96C109.158 146.589 108.721 146.52 101.507 146.52C95.7631 146.497 94.89 146.543 94.89 146.84ZM105.252 147.549C107.986 148.371 109.594 151.046 109.273 154.337C108.951 157.88 106.654 159.983 103.092 160.006C102.173 160.006 101.3 160.006 101.162 160.006C100.933 159.983 100.864 158.543 100.864 153.583V147.183H102.426C103.299 147.183 104.563 147.343 105.252 147.549Z" fill="black"></path>
  <path d="M113.5 146.84C113.5 147.046 113.707 147.183 114.006 147.183C114.787 147.183 115.959 148.12 116.579 149.24C116.878 149.812 118.118 152.189 119.336 154.543L121.542 158.795V163.412C121.542 167.984 121.542 168.007 120.967 168.555C120.669 168.875 120.255 169.127 120.048 169.127C119.865 169.127 119.704 169.287 119.704 169.469C119.704 169.767 120.301 169.812 123.725 169.812C127.148 169.812 127.745 169.767 127.745 169.469C127.745 169.287 127.539 169.127 127.286 169.127C127.01 169.127 126.551 168.875 126.252 168.555L125.678 168.007V158.086L128.205 153.217C130.778 148.303 131.353 147.503 132.616 147.251C132.984 147.183 133.26 146.977 133.26 146.817C133.26 146.566 132.754 146.497 130.985 146.497C128.595 146.497 127.86 146.771 129.101 147.206C129.629 147.389 129.813 147.594 129.813 148.006C129.813 148.623 125.632 156.806 125.31 156.829C124.965 156.852 120.6 148.189 120.761 147.777C120.83 147.571 121.151 147.343 121.427 147.274C121.726 147.206 122.024 147 122.093 146.817C122.208 146.543 121.519 146.497 117.866 146.497C114.144 146.497 113.5 146.543 113.5 146.84Z" fill="black"></path>
  <path d="M189.895 146.726C189.826 146.863 190.033 147.069 190.4 147.206C191.94 147.777 191.848 147.16 191.848 157.972C191.848 164.555 191.756 167.938 191.595 168.258C191.457 168.509 190.975 168.852 190.538 169.058C189.091 169.652 189.964 169.835 194.03 169.767C196.879 169.721 197.913 169.629 198.005 169.401C198.051 169.264 197.89 169.127 197.661 169.127C197.431 169.127 196.994 168.921 196.673 168.669L196.098 168.235L195.96 158.612L196.879 158.589C197.408 158.589 199.223 158.589 200.923 158.589C202.623 158.589 204.14 158.589 204.255 158.589C204.393 158.612 204.484 160.349 204.484 163.298V168.007L203.887 168.555C203.542 168.875 203.083 169.127 202.853 169.127C202.6 169.127 202.417 169.287 202.417 169.469C202.417 169.767 203.014 169.812 206.437 169.812C209.861 169.812 210.458 169.767 210.458 169.469C210.458 169.287 210.32 169.127 210.136 169.127C209.953 169.127 209.516 168.898 209.194 168.601L208.574 168.098V158.223C208.574 151.617 208.666 148.211 208.827 147.914C208.965 147.663 209.378 147.389 209.769 147.297C210.136 147.206 210.458 147 210.458 146.817C210.458 146.543 209.769 146.497 206.437 146.497C203.014 146.497 202.417 146.543 202.417 146.84C202.417 147.023 202.623 147.183 202.876 147.183C203.152 147.183 203.611 147.457 203.91 147.777C204.484 148.394 204.484 148.417 204.484 153.035C204.484 155.983 204.393 157.698 204.255 157.72C204.14 157.72 202.623 157.72 200.923 157.72C199.223 157.72 197.408 157.72 196.902 157.72L195.983 157.698V153.103C195.983 150.269 196.075 148.349 196.236 148.051C196.374 147.8 196.834 147.457 197.27 147.274C197.707 147.091 198.051 146.84 198.051 146.726C198.051 146.406 190.079 146.429 189.895 146.726Z" fill="black"></path>
  <path d="M212.066 146.84C212.066 147.023 212.204 147.183 212.388 147.183C212.549 147.183 212.962 147.389 213.307 147.663L213.904 148.12V168.189L213.307 168.647C212.962 168.921 212.549 169.127 212.388 169.127C212.204 169.127 212.066 169.287 212.066 169.469C212.066 169.767 213.146 169.812 220.522 169.812H228.954L229.712 167.115C230.562 164.029 230.562 164.098 230.102 164.098C229.919 164.098 229.758 164.235 229.758 164.418C229.758 164.989 228.058 167.275 227.23 167.824C225.714 168.852 224.404 169.127 221.096 169.127H218.04V159.755H220.292C221.509 159.755 222.888 159.869 223.348 159.983C224.427 160.281 225.209 161.126 225.369 162.201C225.461 162.749 225.645 163.069 225.852 163.069C226.128 163.069 226.197 162.543 226.242 160.098C226.311 156.532 226.197 155.617 225.714 155.8C225.53 155.869 225.415 155.983 225.484 156.029C225.53 156.097 225.415 156.6 225.232 157.172C224.68 158.795 224.014 159.069 220.751 159.069H218.04V147.137L221.326 147.229C224.152 147.297 224.726 147.366 225.553 147.823C227.07 148.6 228.012 149.56 228.678 150.932C229.252 152.097 229.758 152.577 229.758 151.96C229.758 151.686 228.701 147.914 228.379 147.091L228.149 146.497H220.108C213.123 146.497 212.066 146.543 212.066 146.84Z" fill="black"></path>
  <path d="M241.361 146.771C241.315 146.931 240.648 148.714 239.89 150.726C239.155 152.737 237.753 156.532 236.765 159.183C233.388 168.349 233.227 168.715 231.803 169.058C230.424 169.424 231.044 169.698 233.388 169.767C235.295 169.812 235.731 169.767 235.731 169.492C235.731 169.332 235.479 169.104 235.157 169.035C234.238 168.807 234.238 168.029 235.088 165.721L235.846 163.641L240.051 163.686L244.278 163.755L244.853 165.355C245.175 166.224 245.496 167.344 245.565 167.824C245.657 168.624 245.611 168.715 244.945 168.967C244.554 169.104 244.233 169.355 244.233 169.515C244.233 169.744 245.152 169.812 248.368 169.812C251.883 169.812 252.504 169.767 252.504 169.469C252.504 169.287 252.343 169.127 252.136 169.127C251.929 169.127 251.424 168.921 251.01 168.669C250.206 168.189 250.321 168.441 247.564 160.898C246.852 158.955 246.071 156.829 245.841 156.212C245.611 155.572 244.715 153.149 243.865 150.772C242.601 147.297 242.234 146.497 241.889 146.497C241.659 146.497 241.406 146.634 241.361 146.771ZM242.004 157.629C242.992 160.372 243.773 162.681 243.773 162.772C243.773 162.886 242.05 162.955 239.959 162.955C236.995 162.955 236.168 162.886 236.237 162.658C237.799 158.315 239.982 152.669 240.097 152.669C240.166 152.669 241.039 154.909 242.004 157.629Z" fill="black"></path>
  <path d="M250.666 147.091C250.528 147.411 250.436 147.731 250.436 147.823C250.436 147.914 250.183 148.806 249.862 149.789C249.54 150.772 249.287 151.732 249.287 151.892C249.287 152.6 249.885 152.143 250.367 151.092C251.401 148.851 253.905 147.183 256.18 147.183H257.099V168.189L256.502 168.647C256.157 168.921 255.743 169.127 255.583 169.127C255.399 169.127 255.261 169.287 255.261 169.469C255.261 169.767 255.858 169.812 259.282 169.812C262.613 169.812 263.302 169.767 263.302 169.492C263.302 169.309 263.004 169.104 262.636 169.012C261.212 168.715 261.235 168.807 261.235 157.446V147.114L262.567 147.229C265.026 147.457 267.185 148.989 268.173 151.229C268.61 152.212 269.046 152.532 269.046 151.846C269.046 151.663 268.725 150.36 268.311 148.989L267.576 146.497H250.896L250.666 147.091Z" fill="black"></path>
  <path d="M270.103 146.84C270.195 147.023 270.379 147.183 270.563 147.183C270.724 147.183 271.114 147.411 271.436 147.686L272.01 148.211L272.148 168.029L271.505 168.578C271.16 168.875 270.701 169.127 270.517 169.127C270.333 169.127 270.195 169.287 270.195 169.469C270.195 169.767 270.793 169.812 274.216 169.812C277.639 169.812 278.237 169.767 278.237 169.469C278.237 169.287 278.053 169.127 277.823 169.127C277.593 169.127 277.157 168.852 276.835 168.532C276.284 167.961 276.284 167.869 276.215 163.275L276.146 158.612L276.904 158.589C277.846 158.589 283.452 158.589 284.164 158.589L284.67 158.612V163.298C284.67 167.984 284.67 168.007 284.096 168.555C283.797 168.875 283.314 169.127 283.062 169.127C282.763 169.127 282.602 169.241 282.648 169.401C282.74 169.629 283.82 169.721 286.807 169.767C290.988 169.835 291.632 169.675 290.092 169.035C289.656 168.852 289.196 168.509 289.058 168.258C288.92 167.984 288.783 164.258 288.691 158.406C288.576 149.903 288.599 148.92 288.943 148.189C289.219 147.617 289.518 147.343 289.977 147.251C290.345 147.183 290.644 146.977 290.644 146.817C290.644 146.566 289.885 146.497 286.623 146.497C283.498 146.497 282.602 146.566 282.602 146.794C282.602 146.954 282.947 147.183 283.337 147.297C284.555 147.663 284.67 148.166 284.67 153.172V157.698L284.164 157.72C283.452 157.72 277.846 157.72 276.927 157.72L276.169 157.698V153.103C276.169 150.269 276.261 148.349 276.422 148.051C276.559 147.8 277.019 147.457 277.456 147.274C278.972 146.634 278.329 146.497 274.101 146.497C270.54 146.497 269.988 146.543 270.103 146.84Z" fill="black"></path>
  <path d="M292.068 146.771C292.137 146.931 292.39 147.091 292.642 147.137C292.895 147.183 293.332 147.434 293.584 147.709C294.021 148.189 294.044 148.531 294.136 158.086L294.205 167.938L293.653 168.532C293.332 168.852 292.895 169.127 292.665 169.127C292.436 169.127 292.252 169.287 292.252 169.469C292.252 169.767 293.355 169.812 300.73 169.812H309.208L309.92 167.229C310.311 165.835 310.633 164.532 310.633 164.372C310.633 163.801 310.127 164.121 309.782 164.944C309.208 166.384 307.967 167.687 306.543 168.372C305.302 168.967 305.026 169.012 301.741 169.081L298.226 169.172V159.755H300.477C304.061 159.755 305.118 160.258 305.647 162.201C305.785 162.795 306.037 163.183 306.244 163.183C306.52 163.183 306.543 162.841 306.405 161.081C306.336 159.938 306.267 158.246 306.267 157.332C306.267 155.937 306.198 155.686 305.922 155.777C305.739 155.869 305.578 156.12 305.578 156.372C305.578 157.172 304.843 158.383 304.176 158.726C303.717 158.978 302.752 159.069 300.868 159.069H298.226V147.137L301.511 147.229C304.636 147.297 304.82 147.32 306.014 147.983C307.301 148.691 308.45 149.926 309.093 151.343C309.438 152.12 309.943 152.509 309.943 152.029C309.943 151.937 309.622 150.657 309.208 149.194L308.45 146.497H300.224C293.722 146.497 291.999 146.566 292.068 146.771Z" fill="black"></path>
  <path d="M312.011 146.794C312.011 146.977 312.31 147.183 312.7 147.251C314.079 147.526 314.056 147.503 314.102 158.269L314.125 168.098L313.504 168.601C313.183 168.898 312.746 169.127 312.562 169.127C312.379 169.127 312.241 169.287 312.241 169.469C312.241 169.767 312.838 169.812 316.262 169.812C319.386 169.812 320.282 169.744 320.282 169.515C320.282 169.355 319.938 169.127 319.547 169.012C318.398 168.669 318.215 168.075 318.215 164.258V160.898H318.858C319.409 160.921 319.777 161.332 321.776 164.258C325.636 169.881 325.567 169.812 329.404 169.812C331.472 169.812 332 169.744 332 169.492C332 169.309 331.655 169.104 331.219 169.035C329.863 168.784 329.22 168.098 325.498 162.795L324.165 160.921L324.809 160.783C328.37 160.006 330.369 157.766 330.576 154.246C330.759 151.046 329.611 148.692 327.175 147.32L325.911 146.611L318.973 146.543C313.022 146.474 312.011 146.52 312.011 146.794ZM322.166 147.411C323.66 147.823 325.153 149.012 325.842 150.36C326.394 151.412 326.486 151.846 326.486 153.56C326.486 156.623 325.406 158.475 323.039 159.503C321.96 159.961 321.385 160.052 319.432 160.006L318.215 159.983V147.183H319.777C320.627 147.183 321.707 147.297 322.166 147.411Z" fill="black"></path>
  <path d="M159.521 165.424C158.487 165.926 158.303 166.109 158.303 166.658C158.303 167.001 158.119 167.618 157.89 168.029C155.109 172.99 154.719 174.018 155.454 174.315C156.143 174.567 159.957 172.395 163.978 169.447C165.541 168.281 165.655 168.235 165.655 168.738C165.655 169.195 164.759 172.898 164.139 175.001C164.047 175.367 163.725 175.573 163.151 175.71C155.408 177.493 148.217 179.618 142.909 181.721C140.037 182.841 134.569 185.607 132.455 186.979C130.066 188.533 127.332 191.299 126.459 193.036C125.884 194.202 125.792 194.636 125.792 196.328C125.792 198.042 125.884 198.453 126.528 199.825C127.837 202.568 131.307 205.379 134.684 206.408C138.843 207.711 143.53 206.842 147.803 204.008C153.777 200.031 159.659 190.865 164.185 178.498C164.621 177.31 165.058 176.258 165.15 176.167C165.586 175.755 168.55 175.458 173.283 175.367C178.775 175.23 179.74 175.367 180.015 176.213C180.314 177.15 179.464 178.796 178.062 180.03C177.626 180.418 177.58 180.533 177.856 180.556C178.338 180.556 180.567 178.338 180.727 177.675C180.934 176.921 180.199 175.595 179.234 175.024C178.476 174.544 178.154 174.498 174.961 174.521C172.985 174.521 170.251 174.704 168.573 174.933C166.942 175.161 165.586 175.298 165.518 175.23C165.472 175.184 165.839 173.767 166.345 172.075C167.149 169.492 167.516 168.464 168.137 167.275C168.229 167.046 167.516 166.384 167.149 166.384C166.988 166.384 166.368 166.841 165.77 167.412C165.15 167.984 163.679 169.104 162.462 169.904C158.602 172.487 157.154 173.035 157.154 171.938C157.154 171.344 159.682 167.527 160.945 166.178C162.416 164.624 161.772 164.281 159.521 165.424ZM163.588 176.67C163.588 177.127 161.428 182.636 160.164 185.356C158.809 188.35 155.638 194.11 155.293 194.225C155.178 194.27 155.087 194.408 155.087 194.545C155.087 194.979 151.801 199.116 150.032 200.876C146.471 204.442 142.565 206.362 138.82 206.385C135.971 206.385 132.524 205.128 130.135 203.231C126.941 200.648 125.884 197.311 127.286 194.225C130.227 187.733 142.565 181.241 159.911 177.104C162.783 176.418 163.588 176.327 163.588 176.67Z" fill="black"></path>
  <path d="M139.808 188.419C138.337 189.059 137.74 190.362 138.199 191.916C138.452 192.739 138.452 192.922 138.13 193.173C136.04 194.888 135.902 197.745 137.809 199.185C138.291 199.551 138.797 199.642 140.152 199.642C141.669 199.642 141.99 199.573 142.863 198.979L143.828 198.316L144.724 198.911C145.391 199.368 145.965 199.528 146.907 199.551C147.619 199.573 148.263 199.528 148.355 199.459C148.424 199.368 148.309 199.299 148.056 199.299C147.55 199.299 145.437 198.133 145.023 197.631C144.793 197.356 144.862 197.082 145.322 196.19C145.643 195.573 145.965 194.75 146.034 194.362C146.149 193.745 146.103 193.63 145.621 193.516C145.345 193.425 144.793 193.379 144.403 193.379C143.736 193.379 143.736 193.402 144.242 193.63C144.954 193.996 145.092 194.796 144.633 195.985L144.242 197.013L143.024 195.962C141.6 194.728 139.968 192.899 139.417 191.893C138.567 190.339 139.256 188.784 140.819 188.784C141.807 188.784 142.243 189.082 142.772 190.042L143.116 190.727L143.139 189.63C143.139 188.67 143.07 188.51 142.542 188.327C141.738 188.007 140.635 188.053 139.808 188.419ZM141.301 195.939L143.254 197.951L142.68 198.385C141.761 199.071 140.474 199.162 139.325 198.613C138.544 198.225 138.268 197.928 137.947 197.105C137.487 195.87 137.625 194.659 138.36 193.882C138.751 193.47 138.912 193.402 139.118 193.63C139.256 193.79 140.244 194.842 141.301 195.939Z" fill="black"></path>
  <path d="M194.858 191.345C194.191 193.15 193.571 194.819 193.433 195.07C193.318 195.322 193.02 196.145 192.767 196.876C192.169 198.613 191.756 199.231 191.113 199.368C190.814 199.413 191.365 199.459 192.307 199.459C193.249 199.482 193.847 199.436 193.64 199.368C193.088 199.231 193.134 198.385 193.755 196.67L194.26 195.299H197.661L198.419 197.242C198.832 198.316 199.108 199.253 199.062 199.345C198.993 199.459 199.591 199.528 200.395 199.528C201.704 199.528 201.796 199.505 201.268 199.231C200.556 198.888 200.211 198.202 198.143 192.83C197.224 190.453 196.374 188.396 196.259 188.282C196.121 188.144 195.593 189.333 194.858 191.345ZM196.719 192.602C197.063 193.562 197.316 194.408 197.247 194.453C197.04 194.659 194.835 194.682 194.72 194.476C194.559 194.225 195.754 190.545 195.937 190.727C196.029 190.796 196.374 191.642 196.719 192.602Z" fill="black"></path>
  <path d="M220.476 188.602C220.407 188.899 220.338 189.333 220.338 189.562C220.338 189.996 220.361 189.996 220.797 189.516C221.211 189.082 221.532 189.013 222.865 189.013H224.473V193.63C224.473 198.636 224.404 199.231 223.807 199.368C223.6 199.436 224.267 199.482 225.277 199.482C226.357 199.482 226.886 199.413 226.541 199.322L225.967 199.162L225.898 194.065L225.852 188.967L227.368 189.059C228.632 189.127 228.977 189.242 229.321 189.676L229.758 190.202V188.327H225.53C223.21 188.327 221.142 188.259 220.958 188.19C220.751 188.122 220.567 188.259 220.476 188.602Z" fill="black"></path>
  <path d="M43.1945 188.602C43.1945 188.693 43.4242 188.784 43.7229 188.83C44.2284 188.899 44.2284 188.899 44.2973 193.928C44.3432 198.911 44.3433 198.956 43.8378 199.345C43.3323 199.733 43.3783 199.756 45.6758 199.756C49.1911 199.756 50.5008 199.002 50.7305 196.831C50.8454 195.459 50.4089 194.499 49.283 193.813L48.4789 193.333L49.0533 192.487C49.8574 191.299 49.8345 190.087 48.9614 189.219C48.5478 188.807 48.0424 188.556 47.6288 188.533C47.2842 188.533 46.1354 188.51 45.0785 188.487C44.0446 188.464 43.1945 188.51 43.1945 188.602ZM48.0424 189.79C49.0533 191.436 48.2032 193.47 46.5719 193.31L45.8367 193.242L45.7677 191.207C45.7218 189.927 45.7907 189.104 45.9516 189.013C46.503 188.67 47.6058 189.082 48.0424 189.79ZM48.0424 194.202C49.283 194.933 49.8804 196.899 49.2371 198.156C48.7316 199.116 47.6977 199.459 46.503 199.071L45.7218 198.796V193.813H46.5489C47.0084 193.813 47.6747 193.996 48.0424 194.202Z" fill="black"></path>
  <path d="M59.714 188.944C59.5762 189.31 58.9558 190.979 58.3355 192.67C56.1298 198.636 56.0149 198.888 55.2567 199.322L54.5675 199.756H56.2677C57.899 199.756 57.9449 199.756 57.4624 199.345L56.957 198.956L57.5543 197.196L58.1517 195.459L59.2545 195.368C61.5062 195.208 61.5981 195.276 62.3792 197.631L63.0685 199.733L64.4011 199.756C65.8256 199.756 66.0324 199.642 65.1363 199.299C64.47 199.048 64.1484 198.408 62.3792 193.813C61.667 191.985 60.9547 190.156 60.7709 189.745C60.5871 189.333 60.4263 188.853 60.4263 188.67C60.4263 188.099 59.9668 188.282 59.714 188.944ZM60.6331 192.739L61.3224 194.728H58.3815L58.6342 193.973C58.7491 193.585 59.0248 192.785 59.2086 192.213C59.3924 191.642 59.5992 191.047 59.6451 190.865C59.806 190.385 59.9208 190.613 60.6331 192.739Z" fill="black"></path>
  <path d="M69.9383 188.602C69.8923 188.693 70.0761 188.784 70.3518 188.83L70.8803 188.899L70.9492 193.928C70.9952 198.911 70.9952 198.956 70.4897 199.345C69.9842 199.733 70.0072 199.756 71.7534 199.756C73.6144 199.756 73.8901 199.665 72.9711 199.299C72.4886 199.139 72.3967 198.911 72.3278 197.882C72.3048 197.219 72.2818 196.282 72.3278 195.802C72.3967 194.956 72.4197 194.956 73.3846 194.956C74.3266 194.956 74.4185 195.025 75.1767 196.145C75.6133 196.808 76.4404 197.859 77.0148 198.476C78.0028 199.573 78.0717 199.619 79.5192 199.688C80.7599 199.756 80.8977 199.711 80.4152 199.505C80.0936 199.368 79.6111 199.139 79.3354 199.002C78.8069 198.751 75.5903 194.956 75.5903 194.568C75.5903 194.43 75.7511 194.202 75.9579 194.019C76.5553 193.539 77.1986 192.053 77.1986 191.185C77.1986 190.179 76.6702 189.333 75.7511 188.853C75.0389 188.487 70.1451 188.282 69.9383 188.602ZM74.6943 189.242C75.8201 189.859 76.2336 192.693 75.3606 193.813C74.9929 194.293 74.7402 194.385 73.7752 194.385C73.1549 194.385 72.5805 194.316 72.4886 194.248C72.3737 194.11 72.3048 192.419 72.3507 189.973L72.3737 189.013H73.3157C73.8212 189.013 74.4415 189.127 74.6943 189.242Z" fill="black"></path>
  <path d="M84.0914 188.579C84.0914 188.67 84.3211 188.784 84.6198 188.83C85.1253 188.899 85.1253 188.922 85.1942 193.859C85.2401 198.705 85.2401 198.819 84.7347 199.276L84.2292 199.756H86.5268C89.9732 199.733 91.3747 198.933 91.6274 196.876C91.7653 195.573 91.3287 194.613 90.1799 193.836L89.3758 193.31L89.9502 192.327C90.2718 191.802 90.5246 191.07 90.5246 190.682C90.5246 189.745 89.7434 188.83 88.8473 188.67C87.6756 188.464 84.0914 188.396 84.0914 188.579ZM88.9163 189.836C89.8813 191.367 89.1231 193.356 87.5377 193.356C87.1931 193.356 86.8025 193.219 86.6646 193.059C86.4119 192.762 86.32 189.539 86.5268 189.196C86.5957 189.104 87.0552 189.013 87.5377 189.013C88.2959 189.013 88.4797 189.127 88.9163 189.836ZM88.7325 194.065C89.5366 194.43 90.111 195.345 90.2489 196.465C90.4097 197.951 90.1799 198.499 89.2379 198.956C88.5257 199.276 88.25 199.299 87.5147 199.093C86.7565 198.865 86.6417 198.728 86.5268 197.973C86.3889 196.968 86.3889 194.225 86.5498 193.973C86.6876 193.722 88.1351 193.768 88.7325 194.065Z" fill="black"></path>
  <path d="M97.1876 188.602C97.1876 188.716 97.3943 188.784 97.6471 188.784C98.3134 188.784 98.3823 189.333 98.2904 194.453C98.2215 198.751 98.1985 199.071 97.7619 199.391C97.3484 199.711 97.5781 199.733 100.243 199.756H103.161L103.391 199.162C103.529 198.842 103.621 198.362 103.598 198.088C103.598 197.608 103.575 197.608 103.322 198.156C102.954 198.956 102.748 199.071 101.438 199.071C99.7149 199.071 99.6 198.933 99.577 196.739C99.577 194.019 99.5541 194.042 100.979 194.042C101.967 194.042 102.242 194.133 102.518 194.545C102.863 195.07 102.886 195.048 102.954 194.156L103.046 193.242H99.623L99.646 191.985C99.6689 191.299 99.6919 190.339 99.6919 189.859L99.7149 189.013H100.864C101.829 189.013 102.127 189.127 102.587 189.607L103.161 190.225V188.442H100.174C98.5201 188.442 97.1876 188.51 97.1876 188.602Z" fill="black"></path>
  <path d="M109.227 188.602C109.181 188.693 109.365 188.784 109.64 188.83C110.33 188.922 110.468 189.996 110.376 195.07C110.307 198.796 110.284 198.956 109.778 199.345C109.25 199.733 109.296 199.756 111.203 199.756C112.352 199.756 113.041 199.665 112.926 199.551C112.788 199.436 112.489 199.299 112.237 199.253C111.823 199.185 111.777 198.979 111.708 197.059L111.639 194.956H112.627C113.615 194.956 113.638 194.979 115.201 197.036C116.074 198.179 117.085 199.253 117.429 199.436C118.164 199.802 120.278 199.893 120.048 199.528C119.98 199.391 119.681 199.299 119.428 199.299C118.877 199.299 116.97 197.471 115.706 195.688L114.81 194.476L115.407 193.859C117.154 192.03 116.671 189.036 114.58 188.67C113.5 188.464 109.342 188.419 109.227 188.602ZM114.259 189.47C115.361 190.339 115.614 192.419 114.787 193.699C114.373 194.316 113.34 194.613 112.352 194.385L111.662 194.225V189.013H112.673C113.317 189.013 113.868 189.173 114.259 189.47Z" fill="black"></path>
  <path d="M167.792 188.602L168.412 188.83V193.95C168.412 199.071 168.412 199.093 167.907 199.299C167.493 199.459 167.723 199.505 168.872 199.528C169.699 199.551 170.572 199.596 170.825 199.642C171.583 199.802 173.559 199.116 174.156 198.499C174.57 198.065 174.731 197.585 174.8 196.556C174.892 195.208 174.892 195.162 174.019 194.316C173.513 193.813 172.985 193.379 172.801 193.31C172.525 193.242 172.594 193.036 173.077 192.396C173.49 191.87 173.697 191.322 173.697 190.75C173.697 188.853 172.732 188.327 169.4 188.35C167.608 188.35 167.287 188.419 167.792 188.602ZM171.951 189.493C172.387 190.019 172.548 190.453 172.548 191.207C172.548 192.533 171.974 193.128 170.71 193.128H169.791V188.784H170.572C171.17 188.784 171.514 188.945 171.951 189.493ZM172.226 194.156C173.031 194.682 173.789 196.396 173.605 197.333C173.398 198.476 172.686 199.071 171.606 199.071C169.883 199.071 169.791 198.933 169.791 196.053V193.516L170.71 193.653C171.238 193.722 171.905 193.95 172.226 194.156Z" fill="black"></path>
  <path d="M180.819 188.624L181.394 188.922L181.463 193.585C181.532 198.705 181.486 199.231 180.865 199.345C180.659 199.391 181.761 199.505 183.324 199.596C185.254 199.688 186.288 199.665 186.494 199.482C186.655 199.345 186.793 198.865 186.77 198.408C186.747 197.608 186.747 197.608 186.54 198.179C186.288 198.842 185.782 199.071 184.541 199.071C183.002 199.071 182.887 198.865 182.887 196.168V193.768L184.174 193.905C185.644 194.065 185.874 194.156 185.897 194.682C185.92 194.888 186.012 194.659 186.104 194.156C186.311 193.059 186.219 192.83 185.644 193.127C185.415 193.242 184.702 193.356 184.059 193.356H182.887V188.99L184.312 189.059C185.575 189.127 185.782 189.196 186.035 189.699C186.288 190.202 186.334 190.202 186.334 189.813C186.334 189.562 186.402 189.127 186.471 188.83L186.609 188.327H183.439C180.704 188.327 180.337 188.373 180.819 188.624Z" fill="black"></path>
  <path d="M205.426 188.579C206.162 188.853 206.254 189.333 206.277 193.493C206.3 197.242 206.598 198.133 208.138 199.093C208.965 199.642 209.424 199.756 210.527 199.756C212.526 199.756 213.744 199.093 214.479 197.608C215.007 196.556 215.053 196.236 215.053 193.105C215.053 189.562 215.214 188.67 215.903 188.487C216.133 188.419 215.536 188.373 214.594 188.35C213.054 188.327 212.94 188.373 213.445 188.624L214.019 188.922V192.899C214.019 196.259 213.95 197.013 213.606 197.631C212.71 199.276 210.228 199.688 208.758 198.408C207.862 197.631 207.678 196.876 207.678 193.859C207.655 188.624 207.632 188.784 208.229 188.556C208.597 188.419 208.161 188.35 206.782 188.35C205.266 188.373 204.967 188.419 205.426 188.579Z" fill="black"></path>
  <path d="M234.33 189.447C234.927 190.065 235.938 191.527 236.605 192.693L237.799 194.842V196.968C237.799 198.956 237.776 199.093 237.294 199.299C236.926 199.436 237.34 199.505 238.718 199.482C239.798 199.482 240.419 199.413 240.097 199.368C239.27 199.208 239.178 198.956 239.178 196.716C239.178 195.002 239.27 194.545 239.775 193.516C240.878 191.367 242.371 189.242 243.13 188.784L243.888 188.327H242.44C241.131 188.327 241.039 188.373 241.269 188.716C241.452 189.059 241.246 189.585 240.189 191.459C239.454 192.762 238.787 193.813 238.695 193.813C238.603 193.813 237.914 192.716 237.133 191.367C236.076 189.516 235.8 188.853 236.007 188.624C236.191 188.396 235.961 188.327 234.767 188.327H233.296L234.33 189.447Z" fill="black"></path>
</svg>
